<svg xmlns="http://www.w3.org/2000/svg" viewBox="0 0 112.17 93"><defs><style>.cls-1,.cls-2{fill:#2b2a29;}.cls-1{fill-rule:evenodd;}</style></defs><title>Asset 2</title><g id="Layer_2" data-name="Layer 2"><g id="Layer_1-2" data-name="Layer 1"><g id="Слой_2"><polygon class="cls-1" points="108.26 0 1.85 28.42 0 91.12 10.74 36.57 108.26 0"/><polygon class="cls-1" points="16.45 93 112.17 92.08 106.31 33.65 100.46 87.15 16.45 93"/><circle class="cls-2" cx="34.21" cy="68.97" r="19.64"/><circle class="cls-2" cx="87.31" cy="58.93" r="8.78"/><circle class="cls-2" cx="87.57" cy="74.21" r="6.07"/><path class="cls-1" d="M17.63,37.62H94.69a2,2,0,0,1,2.22,1.78v6.47a2,2,0,0,1-2.22,1.78H17.63a2,2,0,0,1-2.23-1.78V39.4A2,2,0,0,1,17.63,37.62Z"/></g></g></g></svg>